<!DOCTYPE svg PUBLIC "-//W3C//DTD SVG 1.1//EN" "http://www.w3.org/Graphics/SVG/1.1/DTD/svg11.dtd">
<!-- Uploaded to: SVG Repo, www.svgrepo.com, Transformed by: SVG Repo Mixer Tools -->
<svg width="800px" height="800px" viewBox="0 0 20 20" xmlns="http://www.w3.org/2000/svg" fill="#ffffff" stroke="#ffffff">
<g id="SVGRepo_bgCarrier" stroke-width="0"/>
<g id="SVGRepo_tracerCarrier" stroke-linecap="round" stroke-linejoin="round"/>
<g id="SVGRepo_iconCarrier">
<path d="M17.1 14.95c.412.16.9-.08.9-.45v-13c0-.37-.488-.61-.9-.45-.683.41-1.311.83-1.919 1.237-2.14 1.43-4.019 2.687-7.084 2.713H4C2.34 5 1 6.34 1 8s1.34 3 3 3h4c3.123 0 5.02 1.268 7.182 2.714.607.406 1.236.826 1.918 1.236zM9 18h-.79c-.43 0-.81-.27-.94-.67L5.07 13H9a1 1 0 011 1v3c0 .55-.45 1-1 1z" fill="#ffffff"/>
</g>
</svg>